<?xml version="1.0" standalone="no"?>
<!DOCTYPE svg PUBLIC "-//W3C//DTD SVG 20010904//EN"
 "http://www.w3.org/TR/2001/REC-SVG-20010904/DTD/svg10.dtd">
<svg version="1.0" xmlns="http://www.w3.org/2000/svg"
 width="1000.000000pt" height="1000.000000pt" viewBox="0 0 1000.000000 1000.000000"
 preserveAspectRatio="xMidYMid meet">

<g transform="translate(0.000000,1000.000000) scale(0.100000,-0.100000)"
fill="#000000" stroke="none">
<path d="M1690 6708 c80 -79 217 -212 305 -298 88 -85 217 -210 286 -277 l126
-123 2324 0 c1843 0 2332 -3 2364 -13 190 -60 307 -248 275 -441 -20 -123
-110 -239 -227 -294 l-58 -27 -507 -5 c-278 -3 -509 -8 -512 -11 -3 -3 24 -34
61 -69 129 -121 309 -294 473 -455 91 -88 200 -194 244 -234 l78 -74 117 6
c352 18 708 205 913 480 318 428 334 992 42 1437 -52 80 -205 239 -294 307
-65 48 -224 134 -295 158 -27 10 -95 29 -150 43 l-100 26 -2805 3 -2805 3 145
-142z"/>
<path d="M3240 5220 c-12 -9 -8 -16 25 -47 22 -20 105 -100 185 -177 209 -205
1115 -1083 1315 -1275 94 -91 321 -312 507 -493 l336 -328 596 0 c345 0 596 4
596 9 0 5 -17 24 -37 41 -40 34 -504 484 -873 845 -118 116 -336 327 -485 470
-148 143 -360 347 -470 455 -110 107 -202 197 -205 200 -3 3 -76 74 -161 158
l-155 152 -580 0 c-368 0 -584 -4 -594 -10z"/>
<path d="M4652 5222 c-12 -8 33 -53 868 -863 151 -146 453 -439 670 -651 453
-440 791 -765 823 -791 21 -16 62 -17 611 -15 l588 3 -308 299 c-170 165 -388
376 -484 470 -579 563 -1156 1123 -1381 1339 l-227 217 -573 0 c-316 0 -580
-4 -587 -8z"/>
</g>
</svg>
